<?xml version="1.0" encoding="utf-8"?>
<!-- Generator: Adobe Illustrator 21.0.0, SVG Export Plug-In . SVG Version: 6.00 Build 0)  -->
<svg version="1.1" id="Lager_1" xmlns="http://www.w3.org/2000/svg" xmlns:xlink="http://www.w3.org/1999/xlink" x="0px" y="0px"
	 viewBox="0 0 38.8 123.4" style="enable-background:new 0 0 38.8 123.4;" xml:space="preserve">
<style type="text/css">
	.st0{fill:none;stroke:#606060;stroke-width:2;stroke-miterlimit:10;}
</style>
<g>
	<path class="st0" d="M34.3,1c-1,0-1.9,0.4-2.6,1.3c-0.7,0.9-1.1,1.9-1.1,3v28.2c0,1.2-0.4,2.2-1.1,3c-0.7,0.9-1.6,1.3-2.6,1.3
		s-1.9-0.4-2.6-1.3c-0.7-0.9-1.1-1.9-1.1-3V5.3c0-1.2-0.4-2.2-1.1-3C21.4,1.4,20.5,1,19.5,1s-1.9,0.4-2.6,1.3
		c-0.7,0.9-1.1,1.9-1.1,3v28.2c0,1.2-0.4,2.2-1.1,3c-0.7,0.9-1.6,1.3-2.6,1.3s-1.9-0.4-2.6-1.3c-0.7-0.9-1.1-1.9-1.1-3V5.3
		c0-1.2-0.4-2.2-1.1-3C6.6,1.4,5.7,1,4.7,1S2.8,1.4,2.1,2.3C1.4,3.2,1,4.2,1,5.3v43.4c0,2.8,0.7,5.3,2,7.5c1.4,2.3,3.1,3.8,5.3,4.7
		v52.8c0,2.3,0.7,4.4,2.2,6.1c1.5,1.7,3.2,2.6,5.2,2.6h7.4c2,0,3.7-0.9,5.2-2.6c1.5-1.7,2.2-3.7,2.2-6.1V60.9c2.2-0.9,4-2.5,5.3-4.7
		c1.4-2.3,2-4.8,2-7.5V5.3c0-1.2-0.4-2.2-1.1-3C36.1,1.4,35.3,1,34.3,1z"/>
</g>
</svg>
