<?xml version="1.0" encoding="utf-8"?>
<!-- Generator: Adobe Illustrator 21.0.0, SVG Export Plug-In . SVG Version: 6.00 Build 0)  -->
<svg version="1.1" id="Lager_1" xmlns="http://www.w3.org/2000/svg" xmlns:xlink="http://www.w3.org/1999/xlink" x="0px" y="0px"
	 viewBox="0 0 38.9 123.4" style="enable-background:new 0 0 38.9 123.4;" xml:space="preserve">
<style type="text/css">
	.st0{fill:none;stroke:#606060;stroke-width:2;stroke-miterlimit:10;}
</style>
<g>
	<path class="st0" d="M36.8,2.3C36.1,1.4,35.2,1,34.2,1H19.4c-5.1,0-9.4,2.1-13,6.4C2.8,11.6,1,16.7,1,22.7v54.2
		c0,0.6,0.2,1.1,0.5,1.5C1.9,78.8,2.3,79,2.8,79h12.9v34.7c0,2.3,0.7,4.4,2.2,6.1c1.5,1.7,3.2,2.6,5.2,2.6h7.4c2,0,3.7-0.9,5.2-2.6
		c1.5-1.7,2.2-3.7,2.2-6.1V5.4C37.9,4.2,37.5,3.2,36.8,2.3z"/>
</g>
</svg>
